<svg width="38" height="38" fill="none" xmlns="http://www.w3.org/2000/svg"><rect width="38" height="38" rx="19" fill="url(#paint0_linear)"/><path d="M19 12a7 7 0 00-7 7c0 1.197.311 2.364.902 3.406l-.855 2.567a.782.782 0 00.186.793c.231.208.518.297.794.187l2.566-.856a6.888 6.888 0 003.407.902 7 7 0 007-7A6.991 6.991 0 0019 12zm-3.111 7.777A.79.79 0 0115.11 19a.78.78 0 01.778-.778.77.77 0 01.778.778.78.78 0 01-.778.777zm3.111 0a.79.79 0 01-.778-.777.78.78 0 01.778-.778.77.77 0 01.778.778.78.78 0 01-.778.777zm3.111 0a.79.79 0 01-.778-.777.78.78 0 01.778-.778.77.77 0 01.778.778.78.78 0 01-.778.777z" fill="#fff"/><defs><linearGradient id="paint0_linear" x1="48.5" y1="-36" x2="-23" y2="70.5" gradientUnits="userSpaceOnUse"><stop stop-color="#B1E2FF"/><stop offset="1" stop-color="#68C7FF"/></linearGradient></defs></svg>