<svg width="14" height="14" viewBox="0 0 14 14" fill="none" xmlns="http://www.w3.org/2000/svg">
<path d="M7.00006 14C10.8598 14 13.9999 10.8598 13.9999 7C13.9999 3.14019 10.8598 0 7.00006 0C3.14032 0 0.000283555 3.14019 0.000283555 7C0.000283555 8.69925 0.6018 10.3064 1.70417 11.5779L0.148701 13.1129C-0.166557 13.424 0.0518288 13.9646 0.496714 13.9667C0.50014 13.9668 6.99667 14 7.00006 14ZM4.02391 4.52257H10.0095C10.285 4.52257 10.5083 4.7459 10.5083 5.02138C10.5083 5.29686 10.285 5.52019 10.0095 5.52019H4.02391C3.74842 5.52019 3.52512 5.29686 3.52512 5.02138C3.52512 4.7459 3.74846 4.52257 4.02391 4.52257ZM4.02391 6.51782H10.0095C10.285 6.51782 10.5083 6.74115 10.5083 7.01663C10.5083 7.2921 10.285 7.51544 10.0095 7.51544H4.02391C3.74842 7.51544 3.52512 7.2921 3.52512 7.01663C3.52512 6.74115 3.74846 6.51782 4.02391 6.51782ZM3.52512 9.01188C3.52512 8.7364 3.74842 8.51306 4.02391 8.51306H10.0095C10.285 8.51306 10.5083 8.7364 10.5083 9.01188C10.5083 9.28735 10.285 9.51069 10.0095 9.51069H4.02391C3.74846 9.51069 3.52512 9.28735 3.52512 9.01188Z" fill="#BED8E8"/>
</svg>
