<svg width="14" height="14" fill="none" xmlns="http://www.w3.org/2000/svg"><path d="M.383 5.923c-.248-.67-.428-1.354-.373-2.08A1.7 1.7 0 01.54 2.7c.356-.337.692-.69 1.042-1.032.456-.45 1.028-.447 1.484 0 .282.277.562.559.84.84.271.271.545.542.815.815.476.482.479 1.043.003 1.522-.342.342-.68.686-1.028 1.022-.091.089-.1.163-.051.274.228.547.558 1.034.928 1.49.747.917 1.59 1.732 2.596 2.361.216.134.453.234.678.357.116.062.193.042.287-.055.34-.35.687-.695 1.034-1.04.456-.45 1.026-.452 1.482 0a238.03 238.03 0 011.666 1.667c.465.467.462 1.04-.005 1.51-.317.32-.65.621-.946.954-.433.485-.98.644-1.601.61-.906-.048-1.74-.35-2.547-.74A13.858 13.858 0 012.622 9.66C1.676 8.532.896 7.307.382 5.923zm12.982 1.02c.366 0 .667-.299.632-.664A6.985 6.985 0 007.721.003c-.365-.035-.664.266-.664.632 0 .367.299.66.663.703a5.656 5.656 0 014.942 4.942c.043.364.336.662.703.662zm-3.222-.66c.075.359.365.66.732.66.366 0 .669-.3.615-.662A4.494 4.494 0 007.719 2.51c-.363-.054-.662.248-.662.615s.3.656.66.732a3.13 3.13 0 011.571.855c.437.437.73.98.855 1.571z" fill="#fff"/></svg>