<svg width="14" height="14" viewBox="0 0 14 14" fill="none" xmlns="http://www.w3.org/2000/svg">
<path d="M0.38275 5.92255C0.134905 5.25308 -0.0445687 4.56937 0.0095583 3.84293C0.0437438 3.39567 0.211822 3.01393 0.539433 2.70057C0.895532 2.36441 1.23169 2.01116 1.58209 1.66931C2.0379 1.2192 2.6105 1.22205 3.06631 1.66931C3.34834 1.94564 3.62752 2.22767 3.9067 2.5097C4.17734 2.78033 4.45082 3.05097 4.72146 3.32445C5.1972 3.8059 5.20005 4.36711 4.7243 4.84571C4.38245 5.18756 4.04344 5.53226 3.69589 5.86842C3.60473 5.95673 3.59618 6.0308 3.64461 6.14191C3.87252 6.68887 4.20298 7.17602 4.57332 7.63182C5.3197 8.54913 6.16294 9.36389 7.16857 9.99347C7.38507 10.1274 7.62152 10.2271 7.84658 10.3496C7.96338 10.4122 8.04029 10.3923 8.13431 10.2954C8.47331 9.94504 8.82086 9.60034 9.16842 9.25563C9.62422 8.80552 10.194 8.80267 10.6498 9.25563C11.2081 9.8083 11.7637 10.3638 12.3163 10.9222C12.7807 11.3894 12.7778 11.962 12.3106 12.432C11.9944 12.7511 11.6611 13.0531 11.3648 13.3864C10.9318 13.8707 10.3848 14.0302 9.76381 13.996C8.8579 13.9476 8.0232 13.6456 7.217 13.2553C5.42796 12.3865 3.901 11.1814 2.6219 9.66016C1.6761 8.53204 0.895532 7.30706 0.38275 5.92255ZM13.3647 6.94241C13.7313 6.94241 14.0318 6.64431 13.9972 6.27936C13.6827 2.96428 11.0356 0.317136 7.72052 0.00271965C7.35557 -0.0318939 7.05746 0.268607 7.05746 0.635196C7.05746 1.00178 7.35598 1.29486 7.72006 1.33766C10.3027 1.64131 12.3586 3.69716 12.6622 6.27982C12.705 6.6439 12.9981 6.94241 13.3647 6.94241ZM10.1427 6.28335C10.2184 6.64204 10.5083 6.94241 10.8748 6.94241C11.2414 6.94241 11.5438 6.64349 11.4898 6.2809C11.201 4.33916 9.66072 2.79888 7.71898 2.51004C7.35638 2.4561 7.05746 2.75845 7.05746 3.12504C7.05746 3.49163 7.35784 3.78149 7.71653 3.85717C8.30799 3.98197 8.85099 4.27474 9.28806 4.71181C9.72514 5.14889 10.0179 5.69189 10.1427 6.28335Z" fill="white"/>
</svg>
